<?xml version="1.0" encoding="utf-8"?>
<!-- Generator: Adobe Illustrator 19.2.1, SVG Export Plug-In . SVG Version: 6.00 Build 0)  -->
<svg version="1.1" id="Layer_1" xmlns="http://www.w3.org/2000/svg" xmlns:xlink="http://www.w3.org/1999/xlink" x="0px" y="0px"
	 viewBox="0 0 16 16" style="enable-background:new 0 0 16 16;" xml:space="preserve">
<style type="text/css">
	.st0{fill:#FFFF00;stroke:#000000;stroke-width:0.5;stroke-miterlimit:10;}
</style>
<path class="st0" d="M9.1,0.7h5.4c0.5,0,0.7,0.3,0.7,0.7v5.2c0,0.5-0.3,0.7-0.6,0.7H9.2C8.8,7.3,8.6,7,8.6,6.6V1.4
	C8.5,0.9,8.7,0.7,9.1,0.7z M6.7,0.7H1.3c-0.4,0-0.6,0.3-0.6,0.7v5.2c0,0.5,0.3,0.7,0.6,0.7h5.4c0.4,0,0.6-0.3,0.6-0.7V1.4
	C7.5,0.9,7.2,0.7,6.7,0.7z M0.7,9.2v5.2c0,0.4,0.3,0.8,0.6,0.8h5.4c0.4,0,0.6-0.3,0.6-0.7V9.3c0-0.5-0.3-0.7-0.6-0.7H1.3
	C0.9,8.5,0.7,8.7,0.7,9.2z M9.1,15.2h5.4c0.4,0,0.6-0.3,0.6-0.7V9.3c0-0.5-0.3-0.7-0.6-0.7H9.1c-0.4,0-0.6,0.3-0.6,0.7v5.2
	C8.5,14.7,8.7,15.2,9.1,15.2z"/>
</svg>
